<mxfile host="app.diagrams.net" agent="Mozilla/5.0 (Windows NT 10.0; Win64; x64) AppleWebKit/537.36 (KHTML, like Gecko) Chrome/128.0.0.0 Safari/537.36" version="24.7.14">
  <diagram name="Admin Dashboard" id="UTOSRWLYTMXPC3gkwK7h">
    <mxGraphModel dx="1674" dy="772" grid="1" gridSize="10" guides="1" tooltips="1" connect="1" arrows="1" fold="1" page="1" pageScale="1" pageWidth="827" pageHeight="1169" math="0" shadow="0">
      <root>
        <mxCell id="0" />
        <mxCell id="1" parent="0" />
        <mxCell id="2Oybe9JUOi5B_g8JEcGH-13" value="" style="rounded=1;whiteSpace=wrap;html=1;" parent="1" vertex="1">
          <mxGeometry x="327" y="340" width="223" height="190" as="geometry" />
        </mxCell>
        <mxCell id="2Oybe9JUOi5B_g8JEcGH-20" style="edgeStyle=orthogonalEdgeStyle;rounded=0;orthogonalLoop=1;jettySize=auto;html=1;exitX=0.5;exitY=1;exitDx=0;exitDy=0;entryX=0.5;entryY=0;entryDx=0;entryDy=0;" parent="1" source="2Oybe9JUOi5B_g8JEcGH-1" target="2Oybe9JUOi5B_g8JEcGH-2" edge="1">
          <mxGeometry relative="1" as="geometry" />
        </mxCell>
        <mxCell id="2Oybe9JUOi5B_g8JEcGH-1" value="Start" style="ellipse;whiteSpace=wrap;html=1;" parent="1" vertex="1">
          <mxGeometry x="378.5" y="50" width="120" height="80" as="geometry" />
        </mxCell>
        <mxCell id="2Oybe9JUOi5B_g8JEcGH-9" value="" style="rounded=1;whiteSpace=wrap;html=1;" parent="1" vertex="1">
          <mxGeometry x="327" y="560" width="226" height="210" as="geometry" />
        </mxCell>
        <mxCell id="2Oybe9JUOi5B_g8JEcGH-19" style="edgeStyle=orthogonalEdgeStyle;rounded=0;orthogonalLoop=1;jettySize=auto;html=1;exitX=0.5;exitY=1;exitDx=0;exitDy=0;entryX=0.5;entryY=0;entryDx=0;entryDy=0;" parent="1" source="2Oybe9JUOi5B_g8JEcGH-2" target="2Oybe9JUOi5B_g8JEcGH-3" edge="1">
          <mxGeometry relative="1" as="geometry" />
        </mxCell>
        <mxCell id="2Oybe9JUOi5B_g8JEcGH-2" value="Sign Up/ Login" style="rounded=0;whiteSpace=wrap;html=1;" parent="1" vertex="1">
          <mxGeometry x="380" y="160" width="120" height="60" as="geometry" />
        </mxCell>
        <mxCell id="2Oybe9JUOi5B_g8JEcGH-14" style="edgeStyle=orthogonalEdgeStyle;rounded=0;orthogonalLoop=1;jettySize=auto;html=1;exitX=0.5;exitY=1;exitDx=0;exitDy=0;" parent="1" source="2Oybe9JUOi5B_g8JEcGH-3" target="2Oybe9JUOi5B_g8JEcGH-4" edge="1">
          <mxGeometry relative="1" as="geometry" />
        </mxCell>
        <mxCell id="2Oybe9JUOi5B_g8JEcGH-3" value="Content Manager Page" style="rounded=0;whiteSpace=wrap;html=1;" parent="1" vertex="1">
          <mxGeometry x="380" y="260" width="120" height="60" as="geometry" />
        </mxCell>
        <mxCell id="2Oybe9JUOi5B_g8JEcGH-15" style="edgeStyle=orthogonalEdgeStyle;rounded=0;orthogonalLoop=1;jettySize=auto;html=1;exitX=0.5;exitY=1;exitDx=0;exitDy=0;entryX=0.5;entryY=0;entryDx=0;entryDy=0;" parent="1" source="2Oybe9JUOi5B_g8JEcGH-4" target="2Oybe9JUOi5B_g8JEcGH-5" edge="1">
          <mxGeometry relative="1" as="geometry" />
        </mxCell>
        <mxCell id="2Oybe9JUOi5B_g8JEcGH-4" value="Upload Documents&lt;br&gt;(supported multiple data sources)" style="rounded=0;whiteSpace=wrap;html=1;" parent="1" vertex="1">
          <mxGeometry x="380" y="360" width="120" height="60" as="geometry" />
        </mxCell>
        <mxCell id="2Oybe9JUOi5B_g8JEcGH-16" style="edgeStyle=orthogonalEdgeStyle;rounded=0;orthogonalLoop=1;jettySize=auto;html=1;exitX=0.5;exitY=1;exitDx=0;exitDy=0;entryX=0.5;entryY=0;entryDx=0;entryDy=0;" parent="1" source="2Oybe9JUOi5B_g8JEcGH-5" target="2Oybe9JUOi5B_g8JEcGH-6" edge="1">
          <mxGeometry relative="1" as="geometry" />
        </mxCell>
        <mxCell id="2Oybe9JUOi5B_g8JEcGH-5" value="Uploaded documents will be stored in NoSQL DB (MongoDB)" style="rounded=0;whiteSpace=wrap;html=1;" parent="1" vertex="1">
          <mxGeometry x="380" y="450" width="120" height="60" as="geometry" />
        </mxCell>
        <mxCell id="2Oybe9JUOi5B_g8JEcGH-17" style="edgeStyle=orthogonalEdgeStyle;rounded=0;orthogonalLoop=1;jettySize=auto;html=1;exitX=0.5;exitY=1;exitDx=0;exitDy=0;entryX=0.5;entryY=0.5;entryDx=0;entryDy=0;entryPerimeter=0;" parent="1" source="2Oybe9JUOi5B_g8JEcGH-6" target="2Oybe9JUOi5B_g8JEcGH-9" edge="1">
          <mxGeometry relative="1" as="geometry">
            <Array as="points">
              <mxPoint x="440" y="670" />
              <mxPoint x="440" y="670" />
            </Array>
          </mxGeometry>
        </mxCell>
        <mxCell id="2Oybe9JUOi5B_g8JEcGH-6" value="Click &quot;Indexing&quot; button to convert documents to embedding" style="rounded=0;whiteSpace=wrap;html=1;" parent="1" vertex="1">
          <mxGeometry x="380" y="585" width="120" height="60" as="geometry" />
        </mxCell>
        <mxCell id="2Oybe9JUOi5B_g8JEcGH-7" value="Store embedding in vector DB" style="rounded=0;whiteSpace=wrap;html=1;" parent="1" vertex="1">
          <mxGeometry x="380" y="670" width="120" height="60" as="geometry" />
        </mxCell>
        <mxCell id="2Oybe9JUOi5B_g8JEcGH-10" value="Building Knowledge base for Gen AI" style="text;html=1;strokeColor=none;fillColor=none;align=center;verticalAlign=middle;whiteSpace=wrap;rounded=0;" parent="1" vertex="1">
          <mxGeometry x="580" y="610" width="60" height="30" as="geometry" />
        </mxCell>
        <mxCell id="2Oybe9JUOi5B_g8JEcGH-18" value="Preparing data" style="text;html=1;strokeColor=none;fillColor=none;align=center;verticalAlign=middle;whiteSpace=wrap;rounded=0;" parent="1" vertex="1">
          <mxGeometry x="580" y="420" width="60" height="30" as="geometry" />
        </mxCell>
        <mxCell id="2Oybe9JUOi5B_g8JEcGH-21" style="edgeStyle=orthogonalEdgeStyle;rounded=0;orthogonalLoop=1;jettySize=auto;html=1;exitX=1;exitY=0.75;exitDx=0;exitDy=0;entryX=1;entryY=0.5;entryDx=0;entryDy=0;" parent="1" source="2Oybe9JUOi5B_g8JEcGH-7" target="2Oybe9JUOi5B_g8JEcGH-7" edge="1">
          <mxGeometry relative="1" as="geometry" />
        </mxCell>
        <mxCell id="Rv-kHg3yCOE8T_JTYGO7-1" value="&lt;b&gt;To prevent running out of local storage and processing time, frontend will implement a restriction allowing a max of 10 unprocessed documents in MongoDB&lt;/b&gt;" style="text;html=1;align=center;verticalAlign=middle;whiteSpace=wrap;rounded=0;" vertex="1" parent="1">
          <mxGeometry x="70" y="420" width="210" height="30" as="geometry" />
        </mxCell>
      </root>
    </mxGraphModel>
  </diagram>
</mxfile>
